<svg viewBox="0 0 211 210" fill="none" xmlns="http://www.w3.org/2000/svg">
<ellipse cx="105.5" cy="105" rx="105.5" ry="105" fill="#0e5e97"/>
<path d="M46.3312 77.5067C46.3312 59.0015 61.3327 44 79.838 44H153.988C155.652 44 157 45.3484 157 47.0118V47.0118C157 65.5171 141.999 80.5186 123.493 80.5186H49.3431C47.6797 80.5186 46.3312 79.1701 46.3312 77.5067V77.5067Z" fill="white"/>
<path d="M46.0652 131.583C46.0652 129.919 47.4136 128.571 49.077 128.571H123.227C141.732 128.571 156.734 143.572 156.734 162.078V162.078C156.734 163.741 155.386 165.09 153.722 165.09H79.5719C61.0667 165.09 46.0652 150.088 46.0652 131.583V131.583Z" fill="white"/>
<path d="M31 118.092C31 101.823 44.1887 88.6347 60.4578 88.6347H139.287C140.749 88.6347 141.935 89.8202 141.935 91.2826V91.2826C141.935 107.552 128.746 120.74 112.477 120.74H33.6479C32.1855 120.74 31 119.555 31 118.092V118.092Z" fill="white"/>
</svg>
